<svg width="1024" height="1024" viewBox="0 0 1024 1024" fill="none" xmlns="http://www.w3.org/2000/svg">
<path d="M739.556 68.2667C824.889 68.2667 910.222 102.4 978.489 164.978L1024 119.467C944.356 39.8222 841.956 0 739.556 0C637.156 0 534.756 39.8222 455.111 119.467L500.622 164.978C568.889 102.4 654.222 68.2667 739.556 68.2667ZM551.822 210.489L597.333 256C637.156 216.178 688.356 199.111 739.556 199.111C790.756 199.111 841.956 216.178 881.778 256L927.289 210.489C876.089 159.289 807.822 130.844 739.556 130.844C671.289 130.844 603.022 159.289 551.822 210.489V210.489ZM910.222 568.889H796.444V341.333H682.667V568.889H113.778C51.2 568.889 0 620.089 0 682.667V910.222C0 972.8 51.2 1024 113.778 1024H910.222C972.8 1024 1024 972.8 1024 910.222V682.667C1024 620.089 972.8 568.889 910.222 568.889ZM910.222 910.222H113.778V682.667H910.222V910.222ZM170.667 739.556H284.444V853.333H170.667V739.556ZM369.778 739.556H483.556V853.333H369.778V739.556ZM568.889 739.556H682.667V853.333H568.889V739.556Z" fill="#FEE27B"/>
</svg>
